<svg width="154" height="132" viewBox="0 0 154 132" fill="none" xmlns="http://www.w3.org/2000/svg">
<path d="M51.1491 6.92C17.2391 20.6 -3.50094 51.61 0.489065 81.13C0.489065 81.16 0.499084 81.2 0.509084 81.24L0.639059 82.18C0.699059 82.6 0.769081 83.01 0.849081 83.43C1.29908 86.07 1.96906 88.64 2.82906 91.14C3.05906 91.82 3.29907 92.49 3.55907 93.15C9.37907 108.36 21.6291 119.73 37.1291 126.12C39.2891 127.02 41.5191 127.82 43.8091 128.5C59.1391 133.16 76.9291 133.28 94.5691 127.88C101.109 126.02 107.399 123.42 113.079 120.01C113.129 119.98 113.189 119.95 113.249 119.91C116.679 117.83 119.889 115.46 122.799 112.76C139.329 97.43 142.499 72.94 123.339 58.23C120.699 56.2 116.679 54.61 114.429 52.61C112.469 50.85 105.849 40.95 102.539 38.47C101.909 37.99 100.979 38.18 100.559 38.86C97.4591 43.98 100.609 52.33 96.8991 57.04C93.6991 61.11 85.5191 64.06 80.5991 65.48C78.7891 66.01 74.3991 67.38 72.8191 67.4C67.2991 67.45 61.8391 55.48 59.2591 51.3C58.9891 50.85 58.6791 50.04 57.7591 50.16C55.8491 50.42 55.4291 56.37 55.3791 58.15C55.2791 61.57 56.7391 70.34 56.0491 72.74C55.3191 75.29 51.1391 73.34 49.7491 72.36L49.4791 71.74C49.2491 63.17 48.1991 53.42 49.8691 44.97C51.2691 37.82 55.2591 37.11 60.1291 42.2C65.2491 47.53 68.2391 54.6 72.5691 60.51C75.5391 60 90.2391 56.35 91.1591 54.13C92.3291 46.18 92.3391 36.51 95.2291 28.98C98.1891 21.27 101.139 25.91 104.859 30.06C108.839 34.49 115.479 45.53 118.929 48.4C119.819 49.13 122.339 50.04 123.629 50.94C135.849 59.47 142.599 67.95 142.899 83.61C142.909 84.42 141.509 90.18 143.669 89.14C148.819 83.27 151.709 74.98 152.549 67.23C153.629 57.34 152.979 48.39 150.639 40.47C146.059 24.89 134.999 13.32 117.889 6.47999C109.689 2.88999 100.519 0.739985 90.8991 0.199985C90.7891 0.199985 90.6791 0.189965 90.5791 0.179965C90.5591 0.179965 90.5491 0.179965 90.5391 0.179965C89.5891 0.129965 88.6491 0.0799756 87.6991 0.0599756C86.6091 0.0299756 85.5291 0.0299756 84.4591 0.0599756C75.6091 0.199976 66.4691 1.7 57.3791 4.66C57.2991 4.68 57.2091 4.7 57.1391 4.72C55.1991 5.26 53.1891 6 51.1491 6.93V6.92Z" fill="url(#paint0_linear_89_7)"/>
<defs>
<linearGradient id="paint0_linear_89_7" x1="1.66907" y1="140" x2="138.979" y2="2.68999" gradientUnits="userSpaceOnUse">
<stop offset="0.02" stop-color="#59E5B8"/>
<stop offset="0.97" stop-color="#176156"/>
</linearGradient>
</defs>
</svg>
