<svg width="872" height="152" viewBox="0 0 872 152" fill="none" xmlns="http://www.w3.org/2000/svg">
<path d="M51.1491 15.92C17.2391 29.6 -3.50094 60.61 0.489065 90.13C0.489065 90.16 0.499084 90.2 0.509084 90.24L0.639059 91.18C0.699059 91.6 0.769081 92.01 0.849081 92.43C1.29908 95.07 1.96906 97.64 2.82906 100.14C3.05906 100.82 3.29907 101.49 3.55907 102.15C9.37907 117.36 21.6291 128.73 37.1291 135.12C39.2891 136.02 41.5191 136.82 43.8091 137.5C59.1391 142.16 76.9291 142.28 94.5691 136.88C101.109 135.02 107.399 132.42 113.079 129.01C113.129 128.98 113.189 128.95 113.249 128.91C116.679 126.83 119.889 124.46 122.799 121.76C139.329 106.43 142.499 81.94 123.339 67.23C120.699 65.2 116.679 63.61 114.429 61.61C112.469 59.85 105.849 49.95 102.539 47.47C101.909 46.99 100.979 47.18 100.559 47.86C97.4591 52.98 100.609 61.33 96.8991 66.04C93.6991 70.11 85.5191 73.06 80.5991 74.48C78.7891 75.01 74.3991 76.38 72.8191 76.4C67.2991 76.45 61.8391 64.48 59.2591 60.3C58.9891 59.85 58.6791 59.04 57.7591 59.16C55.8491 59.42 55.4291 65.37 55.3791 67.15C55.2791 70.57 56.7391 79.34 56.0491 81.74C55.3191 84.29 51.1391 82.34 49.7491 81.36L49.4791 80.74C49.2491 72.17 48.1991 62.42 49.8691 53.97C51.2691 46.82 55.2591 46.11 60.1291 51.2C65.2491 56.53 68.2391 63.6 72.5691 69.51C75.5391 69 90.2391 65.35 91.1591 63.13C92.3291 55.18 92.3391 45.51 95.2291 37.98C98.1891 30.27 101.139 34.91 104.859 39.06C108.839 43.49 115.479 54.53 118.929 57.4C119.819 58.13 122.339 59.04 123.629 59.94C135.849 68.47 142.599 76.95 142.899 92.61C142.909 93.42 141.509 99.18 143.669 98.14C148.819 92.27 151.709 83.98 152.549 76.23C153.629 66.34 152.979 57.39 150.639 49.47C146.059 33.89 134.999 22.32 117.889 15.48C109.689 11.89 100.519 9.73999 90.8991 9.19999C90.7891 9.19999 90.6791 9.18997 90.5791 9.17997C90.5591 9.17997 90.5491 9.17997 90.5391 9.17997C89.5891 9.12997 88.6491 9.07998 87.6991 9.05998C86.6091 9.02998 85.5291 9.02998 84.4591 9.05998C75.6091 9.19998 66.4691 10.7 57.3791 13.66C57.2991 13.68 57.2091 13.7 57.1391 13.72C55.1991 14.26 53.1891 15 51.1491 15.93V15.92Z" fill="url(#paint0_linear_103_2)"/>
<path d="M139.479 109.7C141.899 109.45 154.619 116.06 155.729 118.49C156.159 119.44 156.189 124.52 155.889 125.55C155.659 126.31 151.779 129.78 151.019 130.08C147.709 131.41 133.139 128.3 131.309 125.1C129.889 122.62 131.359 120.64 132.479 118.47C133.439 116.6 137.529 109.9 139.479 109.7Z" fill="url(#paint1_linear_103_2)"/>
<path d="M190.018 120V27.5781H228.993C238.387 27.5781 245.539 30.5192 250.448 36.4014C255.357 42.2412 257.811 49.8796 257.811 59.3164C257.811 68.7533 255.399 76.3916 250.575 82.2314C245.75 88.0713 238.43 90.9912 228.612 90.9912H212.489V120H190.018ZM212.489 75.8203H223.216C227.702 75.8203 230.833 74.2757 232.611 71.1865C234.388 68.0973 235.277 64.3099 235.277 59.8242C235.277 55.3809 234.388 51.6146 232.611 48.5254C230.833 45.4362 227.702 43.8916 223.216 43.8916H212.489V75.8203ZM260.731 91.8164V89.7217C260.731 80.8773 263.757 73.7256 269.808 68.2666C275.902 62.7653 283.985 60.0146 294.056 60.0146C304.17 60.0146 312.253 62.7653 318.304 68.2666C324.356 73.7256 327.381 80.8773 327.381 89.7217V91.8164C327.381 100.745 324.356 107.939 318.304 113.398C312.253 118.815 304.17 121.523 294.056 121.523C283.942 121.523 275.86 118.815 269.808 113.398C263.757 107.939 260.731 100.745 260.731 91.8164ZM282.694 89.0234V92.3877C282.694 96.5348 283.646 99.9202 285.55 102.544C287.497 105.125 290.332 106.416 294.056 106.416C297.78 106.416 300.594 105.125 302.499 102.544C304.445 99.9202 305.418 96.5348 305.418 92.3877V89.0234C305.418 84.9609 304.445 81.6602 302.499 79.1211C300.594 76.582 297.78 75.3125 294.056 75.3125C290.332 75.3125 287.497 76.582 285.55 79.1211C283.646 81.6602 282.694 84.9609 282.694 89.0234ZM330.492 77.4707V61.8555H373.719V77.4707H330.492ZM339.632 101.719V64.585L340.267 63.8867V42.3682H360.96V96.1328C360.96 100.365 361.489 103.073 362.547 104.258C363.648 105.443 365.383 106.035 367.752 106.035C368.895 106.035 369.953 105.972 370.926 105.845C371.942 105.718 372.915 105.464 373.846 105.083V119.683C372.619 120.021 370.757 120.36 368.26 120.698C365.806 121.079 362.653 121.27 358.802 121.27C352.582 121.27 347.821 119.746 344.52 116.699C341.262 113.61 339.632 108.617 339.632 101.719ZM378.036 103.306C378.036 97.5081 380.363 92.8743 385.018 89.4043C389.673 85.9342 395.894 84.1992 403.68 84.1992H418.661V80.4541C418.661 77.8304 418.026 75.8415 416.756 74.4873C415.487 73.0908 413.434 72.3926 410.599 72.3926C407.806 72.3926 405.648 72.985 404.125 74.1699C402.643 75.3548 401.903 77.0687 401.903 79.3115V80.5811L382.098 80.5176V78.9307C382.098 73.3024 384.764 68.7956 390.096 65.4102C395.471 62.0247 402.834 60.332 412.186 60.332C421.708 60.332 428.775 61.9824 433.387 65.2832C438.042 68.584 440.37 73.9583 440.37 81.4062V106.606C440.37 109.019 440.56 111.304 440.941 113.462C441.364 115.62 442.02 117.503 442.909 119.111V120H421.454C420.777 118.942 420.248 117.715 419.867 116.318C419.486 114.922 419.211 113.441 419.042 111.875C417.603 114.16 415.127 116.234 411.615 118.096C408.102 119.915 403.68 120.825 398.348 120.825C391.958 120.825 386.965 119.344 383.368 116.382C379.813 113.42 378.036 109.061 378.036 103.306ZM399.491 101.719C399.491 104.173 400.189 106.014 401.585 107.241C402.982 108.426 404.971 109.019 407.552 109.019C410.345 109.019 412.884 108.024 415.169 106.035C417.497 104.004 418.661 101.719 418.661 99.1797V94.7998H410.79C406.939 94.7998 404.082 95.3076 402.22 96.3232C400.401 97.3389 399.491 99.1374 399.491 101.719ZM446.273 77.4707V61.8555H489.5V77.4707H446.273ZM455.414 101.719V64.585L456.048 63.8867V42.3682H476.742V96.1328C476.742 100.365 477.271 103.073 478.329 104.258C479.429 105.443 481.164 106.035 483.534 106.035C484.676 106.035 485.734 105.972 486.708 105.845C487.723 105.718 488.696 105.464 489.627 105.083V119.683C488.4 120.021 486.538 120.36 484.042 120.698C481.587 121.079 478.434 121.27 474.583 121.27C468.363 121.27 463.602 119.746 460.301 116.699C457.043 113.61 455.414 108.617 455.414 101.719ZM496.673 120V61.8555H518.827V120H496.673ZM495.594 41.2891C495.594 38.1999 496.652 35.5973 498.768 33.4814C500.884 31.3232 503.91 30.2441 507.845 30.2441C511.781 30.2441 514.785 31.3021 516.859 33.418C518.932 35.4915 519.969 38.1152 519.969 41.2891C519.969 44.3359 518.89 46.9596 516.732 49.1602C514.616 51.3184 511.59 52.3975 507.655 52.3975C503.762 52.3975 500.778 51.3184 498.705 49.1602C496.631 46.9596 495.594 44.3359 495.594 41.2891ZM523.778 120L545.614 85.5957L551.454 85.1514L566.307 61.8555H584.906L563.832 95.3711L556.913 95.6885L542.567 120H523.778ZM524.73 61.8555H547.328L561.927 85.8496L564.276 86.4844L585.794 120H563.26L547.772 94.6094L545.55 94.1016L524.73 61.8555ZM591.888 109.653C591.888 106.437 592.925 103.729 594.999 101.528C597.114 99.3278 600.14 98.2275 604.076 98.2275C607.969 98.2275 610.973 99.3278 613.089 101.528C615.205 103.729 616.263 106.437 616.263 109.653C616.263 112.954 615.205 115.705 613.089 117.905C610.973 120.106 607.969 121.206 604.076 121.206C600.14 121.206 597.114 120.085 594.999 117.842C592.925 115.599 591.888 112.869 591.888 109.653ZM625.086 91.8164V89.7217C625.086 80.4118 627.964 73.1331 633.719 67.8857C639.474 62.6383 647.24 60.0146 657.015 60.0146C666.833 60.0146 674.387 62.0671 679.676 66.1719C684.966 70.2344 687.759 76.2012 688.055 84.0723L688.119 85.4688H667.108V84.707C667.108 81.7448 666.304 79.4385 664.696 77.7881C663.13 76.1377 660.845 75.3125 657.84 75.3125C654.413 75.3125 651.747 76.4762 649.842 78.8037C647.98 81.1312 647.049 84.5378 647.049 89.0234V92.4512C647.049 96.8099 647.959 100.238 649.779 102.734C651.641 105.189 654.307 106.416 657.777 106.416C660.908 106.416 663.257 105.612 664.823 104.004C666.389 102.354 667.193 100.09 667.235 97.2119V96.3232H688.182V97.7832C688.013 105.485 685.262 111.367 679.93 115.43C674.598 119.492 667.023 121.523 657.206 121.523C647.43 121.523 639.623 118.879 633.783 113.589C627.985 108.257 625.086 100.999 625.086 91.8164ZM692.879 91.8164V89.7217C692.879 80.8773 695.905 73.7256 701.957 68.2666C708.05 62.7653 716.133 60.0146 726.205 60.0146C736.319 60.0146 744.401 62.7653 750.453 68.2666C756.504 73.7256 759.53 80.8773 759.53 89.7217V91.8164C759.53 100.745 756.504 107.939 750.453 113.398C744.401 118.815 736.319 121.523 726.205 121.523C716.091 121.523 708.008 118.815 701.957 113.398C695.905 107.939 692.879 100.745 692.879 91.8164ZM714.842 89.0234V92.3877C714.842 96.5348 715.794 99.9202 717.699 102.544C719.645 105.125 722.481 106.416 726.205 106.416C729.929 106.416 732.743 105.125 734.647 102.544C736.594 99.9202 737.567 96.5348 737.567 92.3877V89.0234C737.567 84.9609 736.594 81.6602 734.647 79.1211C732.743 76.582 729.929 75.3125 726.205 75.3125C722.481 75.3125 719.645 76.582 717.699 79.1211C715.794 81.6602 714.842 84.9609 714.842 89.0234ZM767.147 120V61.9189H788.475V70.4883H788.666C790.697 67.3568 793.342 64.8812 796.6 63.0615C799.859 61.2419 803.688 60.332 808.089 60.332C812.363 60.332 816.024 61.2207 819.071 62.998C822.16 64.7754 824.276 67.3779 825.418 70.8057H825.545C827.788 67.5049 830.772 64.9235 834.496 63.0615C838.22 61.1995 842.388 60.2686 847 60.2686C852.798 60.2686 857.453 61.8978 860.965 65.1562C864.478 68.3724 866.234 73.7679 866.234 81.3428V120H844.334V85.1514C844.334 81.8506 843.679 79.5654 842.367 78.2959C841.097 76.984 839.256 76.3281 836.844 76.3281C834.728 76.3281 832.888 77.0052 831.322 78.3594C829.798 79.7135 828.55 81.4274 827.577 83.501V120H805.741V85.1514C805.741 81.8506 805.064 79.5654 803.709 78.2959C802.398 76.984 800.536 76.3281 798.124 76.3281C796.008 76.3281 794.188 77.0264 792.665 78.4229C791.141 79.777 789.893 81.4909 788.919 83.5645V120H767.147Z" fill="black"/>
<defs>
<linearGradient id="paint0_linear_103_2" x1="1.66907" y1="149" x2="138.979" y2="11.69" gradientUnits="userSpaceOnUse">
<stop offset="0.02" stop-color="#59E5B8"/>
<stop offset="0.97" stop-color="#176156"/>
</linearGradient>
<linearGradient id="paint1_linear_103_2" x1="58.909" y1="206.23" x2="196.209" y2="68.9299" gradientUnits="userSpaceOnUse">
<stop offset="0.02" stop-color="#59E5B8"/>
<stop offset="0.97" stop-color="#176156"/>
</linearGradient>
</defs>
</svg>
